<?xml version="1.0" encoding="UTF-8"?>
<svg xmlns="http://www.w3.org/2000/svg" width="1200" height="1200" viewBox="0 0 1200 1200" role="img" aria-labelledby="title desc">
  <title id="title">Logo IDF Curves Chile</title>
  <desc id="desc">Sello circular con texto Intensity Duration Frequency, monograma IDF y tres curvas en azul, rojo y azul lluvia.</desc>
  <metadata>
    Version maestra normalizada 1.0 - julio 2026.
    Colores: #153A5F, #D64045, #79ADBB, #FFFFFF.
    La tipografía circular está convertida a contornos para evitar sustituciones de fuente.
  </metadata>
  <g id="fondo"></g>
  <g id="sello" fill="none" stroke="#FFFFFF">
    <circle cx="600" cy="600" r="558" stroke-width="18"/>
    <circle cx="600" cy="600" r="528" stroke-width="8"/>
  </g>
  <g id="tipografia-circular"><g fill="#FFFFFF" aria-label="INTENSITY • DURATION • FREQUENCY"><g transform="translate(186.083 399.319) rotate(-64.134) scale(0.029 -0.029) translate(-233.5 0)"><path d="M115 0V1466H357V0Z"/></g><g transform="translate(199.541 373.653) rotate(-60.524) scale(0.029 -0.029) translate(-606 0)"><path d="M125 0V1466H361L853 487V1466H1079V0H835L351 956V0Z"/></g><g transform="translate(219.043 342.179) rotate(-55.911) scale(0.029 -0.029) translate(-513 0)"><path d="M393 0V1218H36V1466H991V1218H635V0Z"/></g><g transform="translate(240.186 313.41) rotate(-51.463) scale(0.029 -0.029) translate(-560 0)"><path d="M123 0V1466H1015V1218H365V893H969V646H365V247H1037V0Z"/></g><g transform="translate(265.329 284.413) rotate(-46.681) scale(0.029 -0.029) translate(-606 0)"><path d="M125 0V1466H361L853 487V1466H1079V0H835L351 956V0Z"/></g><g transform="translate(292.802 257.612) rotate(-41.899) scale(0.029 -0.029) translate(-560 0)"><path d="M61 477 298 505Q338 224 560 224Q670 224 733.0 281.5Q796 339 796 424Q796 474 774.0 509.0Q752 544 707.0 566.5Q662 589 489 642Q334 689 262.0 744.0Q190 799 147.5 888.5Q105 978 105 1081Q105 1201 159.5 1297.0Q214 1393 310.0 1442.0Q406 1491 547 1491Q759 1491 878.0 1376.0Q997 1261 1004 1047L761 1034Q745 1152 692.0 1199.0Q639 1246 541 1246Q443 1246 390.0 1205.0Q337 1164 337 1103Q337 1043 385 1002Q433 961 606 912Q789 859 870.5 800.5Q952 742 995.0 649.5Q1038 557 1038 425Q1038 234 920.5 104.0Q803 -26 553 -26Q111 -26 61 477Z"/></g><g transform="translate(313.932 239.771) rotate(-38.454) scale(0.029 -0.029) translate(-233.5 0)"><path d="M115 0V1466H357V0Z"/></g><g transform="translate(334.989 224.009) rotate(-35.178) scale(0.029 -0.029) translate(-513 0)"><path d="M393 0V1218H36V1466H991V1218H635V0Z"/></g><g transform="translate(364.947 204.589) rotate(-30.729) scale(0.029 -0.029) translate(-560 0)"><path d="M438 0V617L-2 1466H282L565 886L843 1466H1122L680 615V0Z"/></g><g transform="translate(407.099 182.401) rotate(-24.794) scale(0.029 -0.029) translate(-294 0)"><path d="M539 724Q539 597 466.0 512.5Q393 428 296 428Q200 428 127.0 512.5Q54 597 54 724Q54 851 127.0 935.0Q200 1019 296 1019Q393 1019 466.0 935.0Q539 851 539 724Z"/></g><g transform="translate(452.574 164.264) rotate(-18.693) scale(0.029 -0.029) translate(-606 0)"><path d="M121 1466H564Q732 1466 817.5 1428.5Q903 1391 975.0 1302.0Q1047 1213 1088.0 1071.0Q1129 929 1129 718Q1129 528 1086.0 387.5Q1043 247 977.0 165.0Q911 83 817.5 41.5Q724 0 577 0H121ZM363 1218V247H545Q662 247 714.5 269.0Q767 291 800.5 335.5Q834 380 856.0 476.0Q878 572 878 729Q878 892 855.5 986.0Q833 1080 785.5 1134.0Q738 1188 670 1205Q619 1218 473 1218Z"/></g><g transform="translate(490.698 153.175) rotate(-13.746) scale(0.029 -0.029) translate(-606 0)"><path d="M120 1466H362V672Q362 487 371 431Q387 334 447.5 281.0Q508 228 607 228Q691 228 744.0 265.5Q797 303 816.5 369.5Q836 436 836 655V1466H1079V696Q1079 401 1047.5 269.5Q1016 138 905.5 56.5Q795 -25 614 -25Q426 -25 320.5 42.5Q215 110 167.5 232.5Q120 355 120 684Z"/></g><g transform="translate(529.635 145.414) rotate(-8.799) scale(0.029 -0.029) translate(-606 0)"><path d="M123 0V1466H634Q830 1466 914.0 1426.5Q998 1387 1052.0 1289.5Q1106 1192 1106 1056Q1106 884 1023.5 779.0Q941 674 789 647Q867 591 918.0 524.5Q969 458 1057 286L1203 0H914L738 319Q643 492 609.0 535.5Q575 579 537.0 595.5Q499 612 415 612H365V0ZM365 846H545Q710 846 755.0 860.5Q800 875 828.0 919.0Q856 963 856 1036Q856 1106 828.0 1148.5Q800 1191 752 1207Q718 1218 555 1218H365Z"/></g><g transform="translate(569.097 141.039) rotate(-3.852) scale(0.029 -0.029) translate(-606 0)"><path d="M1206 0H942L837 333H357L258 0H0L468 1466H725ZM759 580 594 1124 431 580Z"/></g><g transform="translate(606.111 140.041) rotate(0.761) scale(0.029 -0.029) translate(-513 0)"><path d="M393 0V1218H36V1466H991V1218H635V0Z"/></g><g transform="translate(632.39 141.142) rotate(4.038) scale(0.029 -0.029) translate(-233.5 0)"><path d="M115 0V1466H357V0Z"/></g><g transform="translate(662.575 144.276) rotate(7.818) scale(0.029 -0.029) translate(-653.5 0)"><path d="M74 724Q74 986 151.5 1155.5Q229 1325 354.0 1408.0Q479 1491 657 1491Q915 1491 1077.5 1294.0Q1240 1097 1240 733Q1240 365 1068 158Q917 -25 658 -25Q397 -25 246 156Q74 363 74 724ZM324 734Q324 481 420.0 354.5Q516 228 658 228Q801 228 895.0 353.5Q989 479 989 739Q989 994 897.5 1116.0Q806 1238 658 1238Q510 1238 417.0 1115.0Q324 992 324 734Z"/></g><g transform="translate(702.974 151.674) rotate(12.936) scale(0.029 -0.029) translate(-606 0)"><path d="M125 0V1466H361L853 487V1466H1079V0H835L351 956V0Z"/></g><g transform="translate(750.039 165.157) rotate(19.037) scale(0.029 -0.029) translate(-294 0)"><path d="M539 724Q539 597 466.0 512.5Q393 428 296 428Q200 428 127.0 512.5Q54 597 54 724Q54 851 127.0 935.0Q200 1019 296 1019Q393 1019 466.0 935.0Q539 851 539 724Z"/></g><g transform="translate(792.976 182.435) rotate(24.804) scale(0.029 -0.029) translate(-513 0)"><path d="M124 0V1466H948V1218H366V871H869V623H366V0Z"/></g><g transform="translate(825.934 199.308) rotate(29.417) scale(0.029 -0.029) translate(-606 0)"><path d="M123 0V1466H634Q830 1466 914.0 1426.5Q998 1387 1052.0 1289.5Q1106 1192 1106 1056Q1106 884 1023.5 779.0Q941 674 789 647Q867 591 918.0 524.5Q969 458 1057 286L1203 0H914L738 319Q643 492 609.0 535.5Q575 579 537.0 595.5Q499 612 415 612H365V0ZM365 846H545Q710 846 755.0 860.5Q800 875 828.0 919.0Q856 963 856 1036Q856 1106 828.0 1148.5Q800 1191 752 1207Q718 1218 555 1218H365Z"/></g><g transform="translate(858.55 219.537) rotate(34.199) scale(0.029 -0.029) translate(-560 0)"><path d="M123 0V1466H1015V1218H365V893H969V646H365V247H1037V0Z"/></g><g transform="translate(890.429 243.277) rotate(39.151) scale(0.029 -0.029) translate(-653.5 0)"><path d="M1090 186Q1179 109 1284 62L1195 -147Q1141 -127 1089 -93Q1077 -86 926 38Q807 -25 654 -25Q394 -25 233.5 169.5Q73 364 73 733Q73 1103 234.5 1297.0Q396 1491 658 1491Q917 1491 1077.5 1296.5Q1238 1102 1238 733Q1238 554 1202.5 425.0Q1167 296 1090 186ZM895 353Q988 483 988 732Q988 990 895.0 1114.0Q802 1238 656 1238Q510 1238 416.5 1114.0Q323 990 323 733Q323 472 416.5 346.5Q510 221 649 221Q701 221 748 242Q672 302 598 334L666 503Q786 453 895 353Z"/></g><g transform="translate(921.089 270.604) rotate(44.268) scale(0.029 -0.029) translate(-606 0)"><path d="M120 1466H362V672Q362 487 371 431Q387 334 447.5 281.0Q508 228 607 228Q691 228 744.0 265.5Q797 303 816.5 369.5Q836 436 836 655V1466H1079V696Q1079 401 1047.5 269.5Q1016 138 905.5 56.5Q795 -25 614 -25Q426 -25 320.5 42.5Q215 110 167.5 232.5Q120 355 120 684Z"/></g><g transform="translate(947.43 298.517) rotate(49.05) scale(0.029 -0.029) translate(-560 0)"><path d="M123 0V1466H1015V1218H365V893H969V646H365V247H1037V0Z"/></g><g transform="translate(971.353 328.528) rotate(53.832) scale(0.029 -0.029) translate(-606 0)"><path d="M125 0V1466H361L853 487V1466H1079V0H835L351 956V0Z"/></g><g transform="translate(993.379 361.562) rotate(58.779) scale(0.029 -0.029) translate(-606 0)"><path d="M892 539 1127 448Q1072 202 944.0 88.5Q816 -25 629 -25Q394 -25 248 156Q80 365 80 720Q80 1095 249 1307Q396 1491 644 1491Q846 1491 982 1353Q1079 1255 1124 1062L884 992Q861 1111 792.5 1174.5Q724 1238 631 1238Q498 1238 414.0 1122.0Q330 1006 330 739Q330 462 412.0 345.0Q494 228 625 228Q721 228 791.0 302.5Q861 377 892 539Z"/></g><g transform="translate(1011.887 395.185) rotate(63.561) scale(0.029 -0.029) translate(-560 0)"><path d="M438 0V617L-2 1466H282L565 886L843 1466H1122L680 615V0Z"/></g></g><g fill="#FFFFFF" aria-label="CURVES • CHILE"><g transform="translate(374.606 1018.118) rotate(28.328) scale(0.031 -0.031) translate(-606 0)"><path d="M892 539 1127 448Q1072 202 944.0 88.5Q816 -25 629 -25Q394 -25 248 156Q80 365 80 720Q80 1095 249 1307Q396 1491 644 1491Q846 1491 982 1353Q1079 1255 1124 1062L884 992Q861 1111 792.5 1174.5Q724 1238 631 1238Q498 1238 414.0 1122.0Q330 1006 330 739Q330 462 412.0 345.0Q494 228 625 228Q721 228 791.0 302.5Q861 377 892 539Z"/></g><g transform="translate(414.968 1037.48) rotate(22.926) scale(0.031 -0.031) translate(-606 0)"><path d="M120 1466H362V672Q362 487 371 431Q387 334 447.5 281.0Q508 228 607 228Q691 228 744.0 265.5Q797 303 816.5 369.5Q836 436 836 655V1466H1079V696Q1079 401 1047.5 269.5Q1016 138 905.5 56.5Q795 -25 614 -25Q426 -25 320.5 42.5Q215 110 167.5 232.5Q120 355 120 684Z"/></g><g transform="translate(456.975 1052.956) rotate(17.524) scale(0.031 -0.031) translate(-606 0)"><path d="M123 0V1466H634Q830 1466 914.0 1426.5Q998 1387 1052.0 1289.5Q1106 1192 1106 1056Q1106 884 1023.5 779.0Q941 674 789 647Q867 591 918.0 524.5Q969 458 1057 286L1203 0H914L738 319Q643 492 609.0 535.5Q575 579 537.0 595.5Q499 612 415 612H365V0ZM365 846H545Q710 846 755.0 860.5Q800 875 828.0 919.0Q856 963 856 1036Q856 1106 828.0 1148.5Q800 1191 752 1207Q718 1218 555 1218H365Z"/></g><g transform="translate(498.869 1064.109) rotate(12.293) scale(0.031 -0.031) translate(-560 0)"><path d="M429 0 0 1466H263L567 381L861 1466H1119L689 0Z"/></g><g transform="translate(540.201 1071.221) rotate(7.232) scale(0.031 -0.031) translate(-560 0)"><path d="M123 0V1466H1015V1218H365V893H969V646H365V247H1037V0Z"/></g><g transform="translate(581.999 1074.659) rotate(2.172) scale(0.031 -0.031) translate(-560 0)"><path d="M61 477 298 505Q338 224 560 224Q670 224 733.0 281.5Q796 339 796 424Q796 474 774.0 509.0Q752 544 707.0 566.5Q662 589 489 642Q334 689 262.0 744.0Q190 799 147.5 888.5Q105 978 105 1081Q105 1201 159.5 1297.0Q214 1393 310.0 1442.0Q406 1491 547 1491Q759 1491 878.0 1376.0Q997 1261 1004 1047L761 1034Q745 1152 692.0 1199.0Q639 1246 541 1246Q443 1246 390.0 1205.0Q337 1164 337 1103Q337 1043 385 1002Q433 961 606 912Q789 859 870.5 800.5Q952 742 995.0 649.5Q1038 557 1038 425Q1038 234 920.5 104.0Q803 -26 553 -26Q111 -26 61 477Z"/></g><g transform="translate(637.592 1073.51) rotate(-4.539) scale(0.031 -0.031) translate(-294 0)"><path d="M539 724Q539 597 466.0 512.5Q393 428 296 428Q200 428 127.0 512.5Q54 597 54 724Q54 851 127.0 935.0Q200 1019 296 1019Q393 1019 466.0 935.0Q539 851 539 724Z"/></g><g transform="translate(694.057 1065.595) rotate(-11.421) scale(0.031 -0.031) translate(-606 0)"><path d="M892 539 1127 448Q1072 202 944.0 88.5Q816 -25 629 -25Q394 -25 248 156Q80 365 80 720Q80 1095 249 1307Q396 1491 644 1491Q846 1491 982 1353Q1079 1255 1124 1062L884 992Q861 1111 792.5 1174.5Q724 1238 631 1238Q498 1238 414.0 1122.0Q330 1006 330 739Q330 462 412.0 345.0Q494 228 625 228Q721 228 791.0 302.5Q861 377 892 539Z"/></g><g transform="translate(737.47 1054.672) rotate(-16.823) scale(0.031 -0.031) translate(-606 0)"><path d="M123 0V1466H365V889H841V1466H1084V0H841V641H365V0Z"/></g><g transform="translate(769.004 1043.917) rotate(-20.842) scale(0.031 -0.031) translate(-233.5 0)"><path d="M115 0V1466H357V0Z"/></g><g transform="translate(797.108 1032.173) rotate(-24.517) scale(0.031 -0.031) translate(-513 0)"><path d="M129 0V1454H371V247H975V0Z"/></g><g transform="translate(833.202 1013.814) rotate(-29.403) scale(0.031 -0.031) translate(-560 0)"><path d="M123 0V1466H1015V1218H365V893H969V646H365V247H1037V0Z"/></g></g></g>
  
    <g id="monograma-idf" fill="#FFFFFF">
      <path d="M245 345H350V775H245Z"/>
      <path fill-rule="evenodd" d="M395 345H555C695 345 765 430 765 560C765 690 695 775 555 775H395ZM505 450V670H555C623 670 660 625 660 560C660 495 623 450 555 450Z"/>
      <path d="M765 345H985V450H875V520H970V625H875V775H765Z"/>
    </g>
  
    <g id="curvas-idf" fill="none" stroke-linecap="butt" stroke-linejoin="round">
      <path d="M155 590C300 585 365 645 485 705C625 775 770 815 970 800" stroke="#FFFFFF" stroke-width="34"/>
      <path d="M155 670C305 665 375 720 500 775C650 840 790 865 970 850" stroke="#D64045" stroke-width="30"/>
      <path d="M155 745C310 740 380 790 510 835C665 890 800 905 970 890" stroke="#79ADBB" stroke-width="30"/>
    </g>
</svg>
